<svg class="" xmlns="http://www.w3.org/2000/svg" height="92" fill="none" viewBox="0 0 591 92"><g filter="url(#filter0_d_1670_19607)"><path fill="url(#paint0_linear_1670_19607)" d="M22.672 70c-.58 0-1.053-.184-1.422-.553-.369-.369-.553-.843-.553-1.422v-51.35c0-.58.184-1.053.553-1.422.369-.369.843-.553 1.422-.553h10.191c.58 0 1.053.184 1.422.553.369.369.553.843.553 1.422v19.039h19.513V16.675c0-.58.184-1.053.553-1.422.369-.369.843-.553 1.422-.553h10.191c.58 0 1.053.184 1.422.553.369.369.553.843.553 1.422v51.35c0 .58-.184 1.053-.553 1.422-.368.369-.842.553-1.422.553h-10.19c-.58 0-1.054-.184-1.423-.553-.369-.369-.553-.843-.553-1.422V48.354H34.838v19.671c0 .58-.184 1.053-.553 1.422-.368.369-.842.553-1.422.553h-10.19zm73.084.79c-2.844 0-5.398-.527-7.663-1.58-2.212-1.106-3.976-2.58-5.293-4.424-1.316-1.843-1.975-3.924-1.975-6.241 0-3.74 1.528-6.689 4.582-8.848 3.055-2.212 7.11-3.713 12.166-4.503l9.875-1.501v-1.106c0-1.896-.395-3.344-1.185-4.345-.79-1-2.238-1.501-4.345-1.501-1.474 0-2.686.29-3.634.869-.895.58-1.606 1.37-2.133 2.37-.474.685-1.132 1.027-1.975 1.027h-8.848c-.579 0-1.027-.158-1.343-.474a1.597 1.597 0 01-.395-1.264c0-.948.343-2.028 1.027-3.239.738-1.264 1.844-2.502 3.318-3.713 1.475-1.211 3.371-2.212 5.688-3.002 2.318-.79 5.11-1.185 8.374-1.185 3.424 0 6.347.395 8.769 1.185 2.423.79 4.372 1.896 5.846 3.318a13.193 13.193 0 013.397 5.056c.738 1.896 1.106 4.003 1.106 6.32v24.016c0 .58-.21 1.053-.632 1.422a1.827 1.827 0 01-1.343.553h-9.164c-.579 0-1.053-.184-1.422-.553-.368-.369-.553-.843-.553-1.422V65.26c-.684 1-1.606 1.922-2.765 2.765-1.158.843-2.528 1.501-4.108 1.975-1.527.527-3.318.79-5.372.79zm3.713-9.006c1.528 0 2.897-.316 4.108-.948 1.264-.685 2.239-1.712 2.923-3.081.738-1.422 1.106-3.186 1.106-5.293v-1.106l-6.715 1.185c-2.475.421-4.292 1.08-5.45 1.975-1.107.843-1.66 1.843-1.66 3.002 0 .895.264 1.659.79 2.291.527.632 1.212 1.132 2.054 1.501.843.316 1.791.474 2.844.474zM155.475 70c-3.37 0-6.293-.527-8.769-1.58-2.422-1.106-4.292-2.791-5.609-5.056-1.316-2.317-1.975-5.293-1.975-8.927V39.269h-6.162a2.206 2.206 0 01-1.501-.553c-.368-.369-.553-.843-.553-1.422v-6.399c0-.58.185-1.053.553-1.422a2.206 2.206 0 011.501-.553h6.162V15.885c0-.58.185-1.053.553-1.422.422-.369.896-.553 1.422-.553h9.164c.58 0 1.054.184 1.422.553.369.369.553.843.553 1.422V28.92h9.875c.58 0 1.054.184 1.422.553.369.369.553.843.553 1.422v6.399c0 .58-.184 1.053-.553 1.422-.368.369-.842.553-1.422.553h-9.875v14.062c0 1.79.343 3.213 1.027 4.266.685 1.053 1.844 1.58 3.476 1.58h6.083c.58 0 1.054.184 1.422.553.369.369.553.843.553 1.422v6.873c0 .58-.184 1.053-.553 1.422-.368.369-.842.553-1.422.553h-7.347zm40.037.79c-4.424 0-8.163-.711-11.218-2.133-3.002-1.422-5.319-3.45-6.952-6.083-1.58-2.686-2.475-5.872-2.686-9.559a72.658 72.658 0 01-.079-3.555c0-1.37.027-2.554.079-3.555.211-3.74 1.159-6.926 2.844-9.559 1.686-2.633 4.029-4.661 7.031-6.083 3.055-1.422 6.715-2.133 10.981-2.133 4.319 0 7.979.711 10.981 2.133 3.055 1.422 5.425 3.45 7.11 6.083 1.686 2.633 2.634 5.82 2.844 9.559.053 1 .079 2.186.079 3.555 0 1.317-.026 2.502-.079 3.555-.21 3.687-1.132 6.873-2.765 9.559-1.58 2.633-3.897 4.661-6.952 6.083-3.002 1.422-6.741 2.133-11.218 2.133zm0-9.638c2.37 0 4.082-.711 5.135-2.133 1.106-1.422 1.738-3.555 1.896-6.399.053-.79.079-1.843.079-3.16 0-1.317-.026-2.37-.079-3.16-.158-2.791-.79-4.898-1.896-6.32-1.053-1.475-2.765-2.212-5.135-2.212-2.317 0-4.029.737-5.135 2.212-1.106 1.422-1.711 3.529-1.817 6.32-.052.79-.079 1.843-.079 3.16 0 1.317.027 2.37.079 3.16.106 2.844.711 4.977 1.817 6.399 1.106 1.422 2.818 2.133 5.135 2.133zM231.011 70c-.579 0-1.053-.184-1.422-.553-.368-.369-.553-.843-.553-1.422v-37.13c0-.58.185-1.053.553-1.422.369-.369.843-.553 1.422-.553h8.611c.58 0 1.054.184 1.422.553.369.369.553.843.553 1.422v2.686c1.054-1.422 2.528-2.66 4.424-3.713 1.896-1.106 4.135-1.685 6.715-1.738 6.057-.105 10.218 2.186 12.482 6.873 1.212-2.001 2.95-3.634 5.214-4.898 2.265-1.317 4.74-1.975 7.426-1.975 2.739 0 5.188.632 7.347 1.896 2.212 1.211 3.977 3.107 5.293 5.688 1.317 2.528 1.975 5.82 1.975 9.875v22.436c0 .58-.21 1.053-.632 1.422a1.827 1.827 0 01-1.343.553h-9.164a2.206 2.206 0 01-1.501-.553c-.368-.369-.553-.843-.553-1.422V46.142c0-1.843-.263-3.292-.79-4.345-.526-1.106-1.237-1.896-2.133-2.37-.895-.474-1.922-.711-3.081-.711-.948 0-1.896.237-2.844.711-.895.474-1.632 1.264-2.212 2.37-.526 1.053-.79 2.502-.79 4.345v21.883c0 .58-.184 1.053-.553 1.422-.368.369-.842.553-1.422.553h-9.164c-.579 0-1.053-.184-1.422-.553-.368-.369-.553-.843-.553-1.422V46.142c0-1.843-.289-3.292-.869-4.345-.579-1.106-1.316-1.896-2.212-2.37-.895-.474-1.896-.711-3.002-.711-.948 0-1.896.237-2.844.711-.895.474-1.632 1.264-2.212 2.37-.526 1.053-.79 2.475-.79 4.266v21.962c0 .58-.21 1.053-.632 1.422-.368.369-.842.553-1.422.553h-9.322zm111.622 0c-.58 0-1.054-.184-1.422-.553-.369-.369-.553-.843-.553-1.422V27.103h-14.062c-.58 0-1.054-.184-1.422-.553-.369-.421-.553-.895-.553-1.422v-8.453c0-.58.184-1.053.553-1.422.368-.369.842-.553 1.422-.553h42.502c.579 0 1.053.184 1.422.553.368.369.553.843.553 1.422v8.453c0 .527-.185 1-.553 1.422-.369.369-.843.553-1.422.553h-14.062v40.922c0 .58-.185 1.053-.553 1.422-.369.369-.843.553-1.422.553h-10.428zm51.981.79c-4.424 0-8.163-.711-11.218-2.133-3.002-1.422-5.319-3.45-6.952-6.083-1.58-2.686-2.475-5.872-2.686-9.559a71.424 71.424 0 01-.079-3.555c0-1.37.026-2.554.079-3.555.211-3.74 1.159-6.926 2.844-9.559 1.685-2.633 4.029-4.661 7.031-6.083 3.055-1.422 6.715-2.133 10.981-2.133 4.319 0 7.979.711 10.981 2.133 3.055 1.422 5.425 3.45 7.11 6.083 1.685 2.633 2.633 5.82 2.844 9.559.053 1 .079 2.186.079 3.555 0 1.317-.026 2.502-.079 3.555-.211 3.687-1.132 6.873-2.765 9.559-1.58 2.633-3.897 4.661-6.952 6.083-3.002 1.422-6.741 2.133-11.218 2.133zm0-9.638c2.37 0 4.082-.711 5.135-2.133 1.106-1.422 1.738-3.555 1.896-6.399.053-.79.079-1.843.079-3.16 0-1.317-.026-2.37-.079-3.16-.158-2.791-.79-4.898-1.896-6.32-1.053-1.475-2.765-2.212-5.135-2.212-2.317 0-4.029.737-5.135 2.212-1.106 1.422-1.712 3.529-1.817 6.32-.053.79-.079 1.843-.079 3.16 0 1.317.026 2.37.079 3.16.105 2.844.711 4.977 1.817 6.399 1.106 1.422 2.818 2.133 5.135 2.133zM430.113 70c-.58 0-1.054-.184-1.422-.553-.369-.369-.553-.843-.553-1.422v-52.14c0-.58.184-1.053.553-1.422.368-.369.842-.553 1.422-.553h9.164c.526 0 .974.184 1.343.553.421.369.632.843.632 1.422V42.35l10.981-12.087a5.762 5.762 0 011.027-.948c.368-.263.895-.395 1.58-.395h10.586c.474 0 .869.184 1.185.553.368.316.553.711.553 1.185 0 .21-.053.448-.158.711a1.448 1.448 0 01-.474.632l-14.22 15.326 16.195 19.671c.421.421.632.843.632 1.264 0 .474-.185.895-.553 1.264-.316.316-.738.474-1.264.474h-10.823c-.79 0-1.37-.132-1.738-.395a18.112 18.112 0 01-1.027-.948l-12.482-15.01v14.378c0 .58-.211 1.053-.632 1.422a1.83 1.83 0 01-1.343.553h-9.164zm66.008.79c-6.215 0-11.165-1.685-14.852-5.056-3.687-3.37-5.609-8.374-5.767-15.01v-1.422-1.343c.158-4.16 1.08-7.716 2.765-10.665 1.738-3.002 4.108-5.267 7.11-6.794 3.055-1.58 6.61-2.37 10.665-2.37 4.635 0 8.453.922 11.455 2.765 3.055 1.843 5.346 4.345 6.873 7.505 1.527 3.16 2.291 6.768 2.291 10.823v1.896c0 .58-.211 1.053-.632 1.422a1.828 1.828 0 01-1.343.553h-25.28V53.647c.053 1.527.316 2.923.79 4.187.474 1.264 1.211 2.265 2.212 3.002 1.001.737 2.212 1.106 3.634 1.106 1.053 0 1.922-.158 2.607-.474.737-.369 1.343-.764 1.817-1.185.474-.474.843-.869 1.106-1.185.474-.527.843-.843 1.106-.948.316-.158.79-.237 1.422-.237h9.796c.527 0 .948.158 1.264.474.369.263.527.658.474 1.185-.053.895-.5 1.975-1.343 3.239-.843 1.264-2.08 2.528-3.713 3.792-1.58 1.211-3.581 2.212-6.004 3.002-2.423.79-5.24 1.185-8.453 1.185zm-6.715-25.517h13.351v-.158c0-1.685-.263-3.16-.79-4.424-.474-1.264-1.238-2.238-2.291-2.923-1.001-.685-2.212-1.027-3.634-1.027-1.422 0-2.633.342-3.634 1.027-.948.685-1.685 1.659-2.212 2.923-.527 1.264-.79 2.739-.79 4.424v.158zM530.782 70c-.579 0-1.053-.184-1.422-.553-.368-.369-.553-.843-.553-1.422v-37.13c0-.58.185-1.053.553-1.422.369-.369.843-.553 1.422-.553h9.085c.58 0 1.054.184 1.422.553.369.369.553.843.553 1.422v3.002c1.37-1.633 3.16-3.002 5.372-4.108 2.212-1.106 4.819-1.659 7.821-1.659 3.055 0 5.741.685 8.058 2.054 2.37 1.37 4.214 3.397 5.53 6.083 1.37 2.633 2.054 5.872 2.054 9.717v22.041c0 .58-.21 1.053-.632 1.422a1.827 1.827 0 01-1.343.553h-9.954c-.526 0-1-.184-1.422-.553-.368-.369-.553-.843-.553-1.422V46.458c0-2.475-.605-4.371-1.817-5.688-1.158-1.37-2.896-2.054-5.214-2.054-2.159 0-3.897.685-5.214 2.054-1.264 1.317-1.896 3.213-1.896 5.688v21.567c0 .58-.21 1.053-.632 1.422a1.827 1.827 0 01-1.343.553h-9.875z"></path></g><g filter="url(#filter1_d_1670_19607)"><path fill="#fff" d="M16.663 70c-.587 0-1.067-.187-1.44-.56-.374-.373-.56-.853-.56-1.44V16c0-.587.186-1.067.56-1.44.373-.373.853-.56 1.44-.56h10.32c.586 0 1.066.187 1.44.56.373.373.56.853.56 1.44v19.28h19.76V16c0-.587.186-1.067.56-1.44.373-.373.853-.56 1.44-.56h10.32c.586 0 1.066.187 1.44.56.373.373.56.853.56 1.44v52c0 .587-.187 1.067-.56 1.44-.374.373-.854.56-1.44.56h-10.32c-.587 0-1.067-.187-1.44-.56-.374-.373-.56-.853-.56-1.44V48.08h-19.76V68c0 .587-.187 1.067-.56 1.44-.374.373-.854.56-1.44.56h-10.32zm74.009.8c-2.88 0-5.467-.533-7.76-1.6-2.24-1.12-4.027-2.613-5.36-4.48-1.334-1.867-2-3.973-2-6.32 0-3.787 1.546-6.773 4.64-8.96 3.093-2.24 7.2-3.76 12.32-4.56l10-1.52v-1.12c0-1.92-.4-3.387-1.2-4.4-.8-1.013-2.267-1.52-4.4-1.52-1.494 0-2.72.293-3.68.88-.907.587-1.627 1.387-2.16 2.4-.48.693-1.147 1.04-2 1.04h-8.96c-.587 0-1.04-.16-1.36-.48-.32-.373-.453-.8-.4-1.28 0-.96.346-2.053 1.04-3.28.746-1.28 1.867-2.533 3.36-3.76 1.493-1.227 3.413-2.24 5.76-3.04 2.347-.8 5.173-1.2 8.48-1.2 3.467 0 6.427.4 8.88 1.2 2.453.8 4.427 1.92 5.92 3.36a13.371 13.371 0 013.44 5.12c.747 1.92 1.12 4.053 1.12 6.4V68c0 .587-.213 1.067-.64 1.44-.373.373-.827.56-1.36.56h-9.28c-.587 0-1.067-.187-1.44-.56-.373-.373-.56-.853-.56-1.44v-2.8c-.693 1.013-1.627 1.947-2.8 2.8-1.174.853-2.56 1.52-4.16 2-1.547.533-3.36.8-5.44.8zm3.76-9.12c1.546 0 2.933-.32 4.16-.96 1.28-.693 2.267-1.733 2.96-3.12.747-1.44 1.12-3.227 1.12-5.36v-1.12l-6.8 1.2c-2.507.427-4.347 1.093-5.52 2-1.12.853-1.68 1.867-1.68 3.04 0 .907.267 1.68.8 2.32.533.64 1.227 1.147 2.08 1.52.853.32 1.813.48 2.88.48zM151.147 70c-3.413 0-6.373-.533-8.88-1.6-2.453-1.12-4.347-2.827-5.68-5.12-1.333-2.347-2-5.36-2-9.04V38.88h-6.24a2.232 2.232 0 01-1.52-.56c-.373-.373-.56-.853-.56-1.44V30.4c0-.587.187-1.067.56-1.44.427-.373.933-.56 1.52-.56h6.24V15.2c0-.587.187-1.067.56-1.44.427-.373.907-.56 1.44-.56h9.28c.587 0 1.067.187 1.44.56.373.373.56.853.56 1.44v13.2h10c.587 0 1.067.187 1.44.56.373.373.56.853.56 1.44v6.48c0 .587-.187 1.067-.56 1.44-.373.373-.853.56-1.44.56h-10v14.24c0 1.813.347 3.253 1.04 4.32.693 1.067 1.867 1.6 3.52 1.6h6.16c.587 0 1.067.187 1.44.56.373.373.56.853.56 1.44V68c0 .587-.187 1.067-.56 1.44-.373.373-.853.56-1.44.56h-7.44zm40.544.8c-4.48 0-8.267-.72-11.36-2.16-3.04-1.44-5.387-3.493-7.04-6.16-1.6-2.72-2.507-5.947-2.72-9.68a71.935 71.935 0 01-.08-3.6c0-1.387.026-2.587.08-3.6.213-3.787 1.173-7.013 2.88-9.68 1.706-2.667 4.08-4.72 7.12-6.16 3.093-1.44 6.8-2.16 11.12-2.16 4.373 0 8.08.72 11.12 2.16 3.093 1.44 5.493 3.493 7.2 6.16 1.706 2.667 2.666 5.893 2.88 9.68.053 1.013.08 2.213.08 3.6 0 1.333-.027 2.533-.08 3.6-.214 3.733-1.147 6.96-2.8 9.68-1.6 2.667-3.947 4.72-7.04 6.16-3.04 1.44-6.827 2.16-11.36 2.16zm0-9.76c2.4 0 4.133-.72 5.2-2.16 1.12-1.44 1.76-3.6 1.92-6.48.053-.8.08-1.867.08-3.2 0-1.333-.027-2.4-.08-3.2-.16-2.827-.8-4.96-1.92-6.4-1.067-1.493-2.8-2.24-5.2-2.24-2.347 0-4.08.747-5.2 2.24-1.12 1.44-1.734 3.573-1.84 6.4-.054.8-.08 1.867-.08 3.2 0 1.333.026 2.4.08 3.2.106 2.88.72 5.04 1.84 6.48 1.12 1.44 2.853 2.16 5.2 2.16zM227.639 70c-.587 0-1.067-.187-1.44-.56-.374-.373-.56-.853-.56-1.44V30.4c0-.587.186-1.067.56-1.44.373-.373.853-.56 1.44-.56h8.72c.586 0 1.066.187 1.44.56.373.373.56.853.56 1.44v2.72c1.066-1.44 2.56-2.693 4.48-3.76 1.92-1.12 4.186-1.707 6.8-1.76 6.133-.107 10.346 2.213 12.64 6.96 1.226-2.027 2.986-3.68 5.28-4.96 2.293-1.333 4.8-2 7.52-2 2.773 0 5.253.64 7.44 1.92 2.24 1.227 4.026 3.147 5.36 5.76 1.333 2.56 2 5.893 2 10V68c0 .587-.214 1.067-.64 1.44-.374.373-.827.56-1.36.56h-9.28a2.23 2.23 0 01-1.52-.56c-.374-.373-.56-.853-.56-1.44V45.84c0-1.867-.267-3.333-.8-4.4-.534-1.12-1.254-1.92-2.16-2.4-.907-.48-1.947-.72-3.12-.72-.96 0-1.92.24-2.88.72-.907.48-1.654 1.28-2.24 2.4-.534 1.067-.8 2.533-.8 4.4V68c0 .587-.187 1.067-.56 1.44-.374.373-.854.56-1.44.56h-9.28c-.587 0-1.067-.187-1.44-.56-.374-.373-.56-.853-.56-1.44V45.84c0-1.867-.294-3.333-.88-4.4-.587-1.12-1.334-1.92-2.24-2.4-.907-.48-1.92-.72-3.04-.72-.96 0-1.92.24-2.88.72-.907.48-1.654 1.28-2.24 2.4-.534 1.067-.8 2.507-.8 4.32V68c0 .587-.214 1.067-.64 1.44-.374.373-.854.56-1.44.56h-9.44zm111.159 0c-.587 0-1.067-.187-1.44-.56-.373-.373-.56-.853-.56-1.44V26.56h-14.24c-.587 0-1.067-.187-1.44-.56-.373-.427-.56-.907-.56-1.44V16c0-.587.187-1.067.56-1.44.373-.373.853-.56 1.44-.56h43.04c.587 0 1.067.187 1.44.56.373.373.56.853.56 1.44v8.56c0 .533-.187 1.013-.56 1.44-.373.373-.853.56-1.44.56h-14.24V68c0 .587-.187 1.067-.56 1.44-.373.373-.853.56-1.44.56h-10.56zm52.64.8c-4.48 0-8.267-.72-11.36-2.16-3.04-1.44-5.387-3.493-7.04-6.16-1.6-2.72-2.507-5.947-2.72-9.68a71.935 71.935 0 01-.08-3.6c0-1.387.026-2.587.08-3.6.213-3.787 1.173-7.013 2.88-9.68 1.706-2.667 4.08-4.72 7.12-6.16 3.093-1.44 6.8-2.16 11.12-2.16 4.373 0 8.08.72 11.12 2.16 3.093 1.44 5.493 3.493 7.2 6.16 1.706 2.667 2.666 5.893 2.88 9.68.053 1.013.08 2.213.08 3.6 0 1.333-.027 2.533-.08 3.6-.214 3.733-1.147 6.96-2.8 9.68-1.6 2.667-3.947 4.72-7.04 6.16-3.04 1.44-6.827 2.16-11.36 2.16zm0-9.76c2.4 0 4.133-.72 5.2-2.16 1.12-1.44 1.76-3.6 1.92-6.48.053-.8.08-1.867.08-3.2 0-1.333-.027-2.4-.08-3.2-.16-2.827-.8-4.96-1.92-6.4-1.067-1.493-2.8-2.24-5.2-2.24-2.347 0-4.08.747-5.2 2.24-1.12 1.44-1.734 3.573-1.84 6.4-.054.8-.08 1.867-.08 3.2 0 1.333.026 2.4.08 3.2.106 2.88.72 5.04 1.84 6.48 1.12 1.44 2.853 2.16 5.2 2.16zM427.386 70c-.587 0-1.067-.187-1.44-.56-.374-.373-.56-.853-.56-1.44V15.2c0-.587.186-1.067.56-1.44.373-.373.853-.56 1.44-.56h9.28c.533 0 .986.187 1.36.56.426.373.64.853.64 1.44V42l11.12-12.24c.32-.373.666-.693 1.04-.96.373-.267.906-.4 1.6-.4h10.72c.48 0 .88.187 1.2.56.373.32.56.72.56 1.2 0 .213-.054.453-.16.72a1.46 1.46 0 01-.48.64l-14.4 15.52 16.4 19.92c.426.427.64.853.64 1.28 0 .48-.187.907-.56 1.28-.32.32-.747.48-1.28.48h-10.96c-.8 0-1.387-.133-1.76-.4-.374-.32-.72-.64-1.04-.96l-12.64-15.2V68c0 .587-.214 1.067-.64 1.44-.374.373-.827.56-1.36.56h-9.28zm66.843.8c-6.293 0-11.306-1.707-15.04-5.12-3.733-3.413-5.68-8.48-5.84-15.2v-1.44-1.36c.16-4.213 1.094-7.813 2.8-10.8 1.76-3.04 4.16-5.333 7.2-6.88 3.094-1.6 6.694-2.4 10.8-2.4 4.694 0 8.56.933 11.6 2.8 3.094 1.867 5.414 4.4 6.96 7.6 1.547 3.2 2.32 6.853 2.32 10.96v1.92c0 .587-.213 1.067-.64 1.44a1.85 1.85 0 01-1.36.56h-25.6v.56c.054 1.547.32 2.96.8 4.24.48 1.28 1.227 2.293 2.24 3.04 1.014.747 2.24 1.12 3.68 1.12 1.067 0 1.947-.16 2.64-.48.747-.373 1.36-.773 1.84-1.2.48-.48.854-.88 1.12-1.2.48-.533.854-.853 1.12-.96.32-.16.8-.24 1.44-.24h9.92c.534 0 .96.16 1.28.48.374.267.534.667.48 1.2-.053.907-.506 2-1.36 3.28-.853 1.28-2.106 2.56-3.76 3.84-1.6 1.227-3.626 2.24-6.08 3.04-2.453.8-5.306 1.2-8.56 1.2zm-6.8-25.84h13.52v-.16c0-1.707-.266-3.2-.8-4.48-.48-1.28-1.253-2.267-2.32-2.96-1.013-.693-2.24-1.04-3.68-1.04s-2.666.347-3.68 1.04c-.96.693-1.706 1.68-2.24 2.96-.533 1.28-.8 2.773-.8 4.48v.16zm41.9 25.04c-.586 0-1.066-.187-1.44-.56-.373-.373-.56-.853-.56-1.44V30.4c0-.587.187-1.067.56-1.44.374-.373.854-.56 1.44-.56h9.2c.587 0 1.067.187 1.44.56.374.373.56.853.56 1.44v3.04c1.387-1.653 3.2-3.04 5.44-4.16s4.88-1.68 7.92-1.68c3.094 0 5.814.693 8.16 2.08 2.4 1.387 4.267 3.44 5.6 6.16 1.387 2.667 2.08 5.947 2.08 9.84V68c0 .587-.213 1.067-.64 1.44a1.85 1.85 0 01-1.36.56h-10.08c-.533 0-1.013-.187-1.44-.56-.373-.373-.56-.853-.56-1.44V46.16c0-2.507-.613-4.427-1.84-5.76-1.173-1.387-2.933-2.08-5.28-2.08-2.186 0-3.946.693-5.28 2.08-1.28 1.333-1.92 3.253-1.92 5.76V68c0 .587-.213 1.067-.64 1.44a1.85 1.85 0 01-1.36.56h-10z"></path></g><defs><filter id="filter0_d_1670_19607" width="583.98" height="90.88" x="6.697" y="0.91" color-interpolation-filters="sRGB" filterUnits="userSpaceOnUse"><feFlood flood-opacity="0" result="BackgroundImageFix"></feFlood><feColorMatrix in="SourceAlpha" result="hardAlpha" values="0 0 0 0 0 0 0 0 0 0 0 0 0 0 0 0 0 0 127 0"></feColorMatrix><feOffset dx="3" dy="4"></feOffset><feGaussianBlur stdDeviation="8.5"></feGaussianBlur><feComposite in2="hardAlpha" operator="out"></feComposite><feColorMatrix values="0 0 0 0 1 0 0 0 0 1 0 0 0 0 1 0 0 0 0.2 0"></feColorMatrix><feBlend in2="BackgroundImageFix" result="effect1_dropShadow_1670_19607"></feBlend><feBlend in="SourceGraphic" in2="effect1_dropShadow_1670_19607" result="shape"></feBlend></filter><filter id="filter1_d_1670_19607" width="589.066" height="91.6" x="0.662" y="0.2" color-interpolation-filters="sRGB" filterUnits="userSpaceOnUse"><feFlood flood-opacity="0" result="BackgroundImageFix"></feFlood><feColorMatrix in="SourceAlpha" result="hardAlpha" values="0 0 0 0 0 0 0 0 0 0 0 0 0 0 0 0 0 0 127 0"></feColorMatrix><feOffset dx="3" dy="4"></feOffset><feGaussianBlur stdDeviation="8.5"></feGaussianBlur><feComposite in2="hardAlpha" operator="out"></feComposite><feColorMatrix values="0 0 0 0 1 0 0 0 0 1 0 0 0 0 1 0 0 0 0.2 0"></feColorMatrix><feBlend in2="BackgroundImageFix" result="effect1_dropShadow_1670_19607"></feBlend><feBlend in="SourceGraphic" in2="effect1_dropShadow_1670_19607" result="shape"></feBlend></filter><linearGradient id="paint0_linear_1670_19607" x1="582.812" x2="18.034" y1="41.147" y2="41.147" gradientUnits="userSpaceOnUse"><stop stop-color="#1B4347"></stop><stop offset="1" stop-color="#3D906A"></stop></linearGradient></defs></svg>